<mxfile host="app.diagrams.net" modified="2022-08-09T10:58:39.806Z" agent="5.0 (Windows NT 10.0; Win64; x64) AppleWebKit/537.36 (KHTML, like Gecko) Chrome/104.0.5112.81 Safari/537.36 Edg/104.0.1293.47" etag="d4Atq1qxy8ZDgoSP0WMa" version="20.2.3" type="github" pages="3">
  <diagram id="ONH8krnMqcLBxi4N86ac" name="move">
    <mxGraphModel dx="792" dy="694" grid="1" gridSize="10" guides="1" tooltips="1" connect="1" arrows="1" fold="1" page="1" pageScale="1" pageWidth="827" pageHeight="1169" math="0" shadow="0">
      <root>
        <mxCell id="0" />
        <mxCell id="1" parent="0" />
        <mxCell id="ergqBZhedSkw3TVzr_pt-13" value="" style="rounded=1;whiteSpace=wrap;html=1;fillColor=#dae8fc;strokeColor=#6c8ebf;" parent="1" vertex="1">
          <mxGeometry x="270" y="230" width="470" height="160" as="geometry" />
        </mxCell>
        <mxCell id="ergqBZhedSkw3TVzr_pt-12" value="" style="rounded=1;whiteSpace=wrap;html=1;fillColor=#d5e8d4;strokeColor=#82b366;" parent="1" vertex="1">
          <mxGeometry x="270" y="30" width="470" height="160" as="geometry" />
        </mxCell>
        <mxCell id="ergqBZhedSkw3TVzr_pt-1" value="" style="endArrow=classic;html=1;rounded=0;" parent="1" edge="1">
          <mxGeometry width="50" height="50" relative="1" as="geometry">
            <mxPoint x="340" y="326" as="sourcePoint" />
            <mxPoint x="720" y="326" as="targetPoint" />
          </mxGeometry>
        </mxCell>
        <mxCell id="ergqBZhedSkw3TVzr_pt-2" value="" style="endArrow=classic;html=1;rounded=0;" parent="1" edge="1">
          <mxGeometry width="50" height="50" relative="1" as="geometry">
            <mxPoint x="360" y="366" as="sourcePoint" />
            <mxPoint x="360" y="246" as="targetPoint" />
          </mxGeometry>
        </mxCell>
        <mxCell id="ergqBZhedSkw3TVzr_pt-3" value="" style="shape=image;html=1;verticalAlign=top;verticalLabelPosition=bottom;labelBackgroundColor=#ffffff;imageAspect=0;aspect=fixed;image=https://cdn0.iconfinder.com/data/icons/phosphor-fill-vol-3/256/person-simple-run-fill-128.png" parent="1" vertex="1">
          <mxGeometry x="386" y="296" width="28" height="28" as="geometry" />
        </mxCell>
        <mxCell id="ergqBZhedSkw3TVzr_pt-4" value="" style="shape=image;html=1;verticalAlign=top;verticalLabelPosition=bottom;labelBackgroundColor=#ffffff;imageAspect=0;aspect=fixed;image=https://cdn0.iconfinder.com/data/icons/phosphor-fill-vol-3/256/person-simple-run-fill-128.png;imageBackground=#007FFF;imageBorder=default;" parent="1" vertex="1">
          <mxGeometry x="670" y="296" width="28" height="28" as="geometry" />
        </mxCell>
        <mxCell id="ergqBZhedSkw3TVzr_pt-5" value="" style="endArrow=classic;html=1;rounded=0;" parent="1" edge="1">
          <mxGeometry width="50" height="50" relative="1" as="geometry">
            <mxPoint x="340" y="130" as="sourcePoint" />
            <mxPoint x="715" y="130" as="targetPoint" />
          </mxGeometry>
        </mxCell>
        <mxCell id="ergqBZhedSkw3TVzr_pt-6" value="" style="endArrow=classic;html=1;rounded=0;" parent="1" edge="1">
          <mxGeometry width="50" height="50" relative="1" as="geometry">
            <mxPoint x="355" y="170" as="sourcePoint" />
            <mxPoint x="355" y="50" as="targetPoint" />
          </mxGeometry>
        </mxCell>
        <mxCell id="ergqBZhedSkw3TVzr_pt-7" value="" style="shape=image;html=1;verticalAlign=top;verticalLabelPosition=bottom;labelBackgroundColor=#ffffff;imageAspect=0;aspect=fixed;image=https://cdn0.iconfinder.com/data/icons/phosphor-fill-vol-3/256/person-simple-run-fill-128.png" parent="1" vertex="1">
          <mxGeometry x="381" y="100" width="28" height="28" as="geometry" />
        </mxCell>
        <mxCell id="ergqBZhedSkw3TVzr_pt-8" value="" style="shape=image;html=1;verticalAlign=top;verticalLabelPosition=bottom;labelBackgroundColor=#ffffff;imageAspect=0;aspect=fixed;image=https://cdn0.iconfinder.com/data/icons/phosphor-fill-vol-3/256/person-simple-run-fill-128.png;imageBorder=default;imageBackground=#007FFF;" parent="1" vertex="1">
          <mxGeometry x="665" y="100" width="28" height="28" as="geometry" />
        </mxCell>
        <mxCell id="ergqBZhedSkw3TVzr_pt-9" value="" style="shape=image;html=1;verticalAlign=top;verticalLabelPosition=bottom;labelBackgroundColor=#ffffff;imageAspect=0;aspect=fixed;image=https://cdn0.iconfinder.com/data/icons/phosphor-fill-vol-3/256/person-simple-run-fill-128.png;imageBackground=#00CC00;" parent="1" vertex="1">
          <mxGeometry x="455" y="100" width="28" height="28" as="geometry" />
        </mxCell>
        <mxCell id="ergqBZhedSkw3TVzr_pt-10" value="" style="endArrow=classic;startArrow=classic;html=1;rounded=0;" parent="1" edge="1">
          <mxGeometry width="50" height="50" relative="1" as="geometry">
            <mxPoint x="395" y="80" as="sourcePoint" />
            <mxPoint x="470" y="80" as="targetPoint" />
          </mxGeometry>
        </mxCell>
        <mxCell id="ergqBZhedSkw3TVzr_pt-11" value="" style="endArrow=classic;startArrow=classic;html=1;rounded=0;" parent="1" edge="1">
          <mxGeometry width="50" height="50" relative="1" as="geometry">
            <mxPoint x="400.0000000000001" y="276" as="sourcePoint" />
            <mxPoint x="690" y="276" as="targetPoint" />
          </mxGeometry>
        </mxCell>
        <mxCell id="ergqBZhedSkw3TVzr_pt-17" value="&lt;font style=&quot;font-size: 20px;&quot;&gt;8m&lt;/font&gt;" style="text;html=1;strokeColor=none;fillColor=none;align=center;verticalAlign=middle;whiteSpace=wrap;rounded=0;" parent="1" vertex="1">
          <mxGeometry x="500" y="246" width="60" height="30" as="geometry" />
        </mxCell>
        <mxCell id="ergqBZhedSkw3TVzr_pt-18" value="&lt;font style=&quot;font-size: 20px;&quot;&gt;2m&lt;/font&gt;" style="text;html=1;strokeColor=none;fillColor=none;align=center;verticalAlign=middle;whiteSpace=wrap;rounded=0;" parent="1" vertex="1">
          <mxGeometry x="400" y="50" width="60" height="30" as="geometry" />
        </mxCell>
        <mxCell id="ergqBZhedSkw3TVzr_pt-20" value="" style="sketch=0;aspect=fixed;pointerEvents=1;shadow=0;dashed=0;html=1;strokeColor=none;labelPosition=center;verticalLabelPosition=bottom;verticalAlign=top;align=center;fillColor=#00188D;shape=mxgraph.mscae.enterprise.cluster_server;fontSize=20;" parent="1" vertex="1">
          <mxGeometry x="288" y="74" width="40" height="50" as="geometry" />
        </mxCell>
        <mxCell id="ergqBZhedSkw3TVzr_pt-21" value="" style="shape=mxgraph.cisco.people.androgenous_person;html=1;pointerEvents=1;dashed=0;fillColor=#1ba1e2;strokeColor=#006EAF;strokeWidth=2;verticalLabelPosition=bottom;verticalAlign=top;align=center;outlineConnect=0;fontSize=15;fontColor=#ffffff;" parent="1" vertex="1">
          <mxGeometry x="288" y="270" width="49" height="54" as="geometry" />
        </mxCell>
        <mxCell id="ergqBZhedSkw3TVzr_pt-22" value="&lt;font style=&quot;font-size: 20px;&quot;&gt;Server&lt;/font&gt;" style="text;html=1;strokeColor=none;fillColor=none;align=center;verticalAlign=middle;whiteSpace=wrap;rounded=0;" parent="1" vertex="1">
          <mxGeometry x="279" y="124" width="60" height="30" as="geometry" />
        </mxCell>
        <mxCell id="ergqBZhedSkw3TVzr_pt-23" value="&lt;font style=&quot;font-size: 20px;&quot;&gt;Client&lt;/font&gt;" style="text;html=1;strokeColor=none;fillColor=none;align=center;verticalAlign=middle;whiteSpace=wrap;rounded=0;" parent="1" vertex="1">
          <mxGeometry x="282.5" y="330" width="60" height="30" as="geometry" />
        </mxCell>
      </root>
    </mxGraphModel>
  </diagram>
  <diagram id="B5DM0rhCyY0FqQLMaglu" name="cheat">
    <mxGraphModel dx="1131" dy="991" grid="1" gridSize="10" guides="1" tooltips="1" connect="1" arrows="1" fold="1" page="1" pageScale="1" pageWidth="827" pageHeight="1169" math="0" shadow="0">
      <root>
        <mxCell id="0" />
        <mxCell id="1" parent="0" />
        <mxCell id="QyPjGpm-KSjDwrkS4UtW-1" value="" style="rounded=1;whiteSpace=wrap;html=1;strokeWidth=2;fontSize=20;fillColor=#dae8fc;strokeColor=#6c8ebf;" vertex="1" parent="1">
          <mxGeometry x="300.5" y="445" width="160" height="255" as="geometry" />
        </mxCell>
        <mxCell id="8j0dY3Lb6a7uKTsv7JGb-2" value="Game Logic" style="rounded=1;whiteSpace=wrap;html=1;strokeWidth=2;fontSize=20;fillColor=#1ba1e2;fontColor=#ffffff;strokeColor=#006EAF;" vertex="1" parent="1">
          <mxGeometry x="310" y="585" width="140" height="40" as="geometry" />
        </mxCell>
        <mxCell id="8j0dY3Lb6a7uKTsv7JGb-5" value="RAM" style="rounded=1;whiteSpace=wrap;html=1;strokeWidth=2;fontSize=20;fillColor=#1ba1e2;fontColor=#ffffff;strokeColor=#006EAF;" vertex="1" parent="1">
          <mxGeometry x="310.5" y="640" width="140" height="40" as="geometry" />
        </mxCell>
        <mxCell id="7PmO3jos0R-jNk6ZXs70-1" value="" style="sketch=0;aspect=fixed;pointerEvents=1;shadow=0;dashed=0;html=1;strokeColor=none;labelPosition=center;verticalLabelPosition=bottom;verticalAlign=top;align=center;fillColor=#00188D;shape=mxgraph.mscae.enterprise.cluster_server;fontSize=20;strokeWidth=2;" vertex="1" parent="1">
          <mxGeometry x="219" y="140" width="40" height="50" as="geometry" />
        </mxCell>
        <mxCell id="7PmO3jos0R-jNk6ZXs70-2" value="" style="shape=mxgraph.cisco.people.androgenous_person;html=1;pointerEvents=1;dashed=0;fillColor=#1ba1e2;strokeColor=#006EAF;strokeWidth=2;verticalLabelPosition=bottom;verticalAlign=top;align=center;outlineConnect=0;fontSize=20;fontColor=#ffffff;" vertex="1" parent="1">
          <mxGeometry x="219.5" y="526" width="49" height="54" as="geometry" />
        </mxCell>
        <mxCell id="7PmO3jos0R-jNk6ZXs70-3" value="&lt;font style=&quot;font-size: 20px;&quot;&gt;Server&lt;/font&gt;" style="text;html=1;strokeColor=none;fillColor=none;align=center;verticalAlign=middle;whiteSpace=wrap;rounded=0;strokeWidth=2;fontSize=20;" vertex="1" parent="1">
          <mxGeometry x="210" y="190" width="60" height="30" as="geometry" />
        </mxCell>
        <mxCell id="7PmO3jos0R-jNk6ZXs70-4" value="&lt;font style=&quot;font-size: 20px;&quot;&gt;Client&lt;/font&gt;" style="text;html=1;strokeColor=none;fillColor=none;align=center;verticalAlign=middle;whiteSpace=wrap;rounded=0;strokeWidth=2;fontSize=20;" vertex="1" parent="1">
          <mxGeometry x="214" y="586" width="60" height="30" as="geometry" />
        </mxCell>
        <mxCell id="7PmO3jos0R-jNk6ZXs70-5" value="Server &lt;br&gt;Game World" style="rounded=1;whiteSpace=wrap;html=1;strokeWidth=2;fontSize=20;fillColor=#d5e8d4;strokeColor=#82b366;" vertex="1" parent="1">
          <mxGeometry x="300" y="120" width="150" height="100" as="geometry" />
        </mxCell>
        <mxCell id="7PmO3jos0R-jNk6ZXs70-7" value="" style="endArrow=none;html=1;rounded=0;entryX=0.25;entryY=1;entryDx=0;entryDy=0;startArrow=classic;startFill=1;endFill=0;shape=flexArrow;strokeWidth=2;fontSize=20;exitX=0.75;exitY=0;exitDx=0;exitDy=0;fillColor=#d5e8d4;strokeColor=#82b366;" edge="1" parent="1" source="QyPjGpm-KSjDwrkS4UtW-1">
          <mxGeometry width="50" height="50" relative="1" as="geometry">
            <mxPoint x="421" y="440" as="sourcePoint" />
            <mxPoint x="421.08" y="221.65" as="targetPoint" />
          </mxGeometry>
        </mxCell>
        <mxCell id="7PmO3jos0R-jNk6ZXs70-8" value="" style="endArrow=classic;html=1;rounded=0;entryX=0.25;entryY=1;entryDx=0;entryDy=0;exitX=0.185;exitY=0.005;exitDx=0;exitDy=0;exitPerimeter=0;shape=flexArrow;strokeWidth=2;fontSize=20;fillColor=#dae8fc;strokeColor=#6c8ebf;" edge="1" parent="1" source="QyPjGpm-KSjDwrkS4UtW-1">
          <mxGeometry width="50" height="50" relative="1" as="geometry">
            <mxPoint x="330.00000000000006" y="358.3499999999999" as="sourcePoint" />
            <mxPoint x="331.08" y="220" as="targetPoint" />
          </mxGeometry>
        </mxCell>
        <mxCell id="7PmO3jos0R-jNk6ZXs70-10" value="" style="endArrow=classic;html=1;rounded=0;dashed=1;strokeWidth=2;fontSize=20;" edge="1" parent="1">
          <mxGeometry width="50" height="50" relative="1" as="geometry">
            <mxPoint x="340" y="260" as="sourcePoint" />
            <mxPoint x="520" y="260" as="targetPoint" />
          </mxGeometry>
        </mxCell>
        <mxCell id="7PmO3jos0R-jNk6ZXs70-11" value="" style="endArrow=classic;html=1;rounded=0;dashed=1;strokeWidth=2;fontSize=20;" edge="1" parent="1">
          <mxGeometry width="50" height="50" relative="1" as="geometry">
            <mxPoint x="430" y="310" as="sourcePoint" />
            <mxPoint x="520" y="310" as="targetPoint" />
          </mxGeometry>
        </mxCell>
        <mxCell id="7PmO3jos0R-jNk6ZXs70-12" value="发包造假" style="rounded=1;whiteSpace=wrap;html=1;strokeWidth=2;fontSize=20;fillColor=#fad9d5;strokeColor=#ae4132;" vertex="1" parent="1">
          <mxGeometry x="520" y="240" width="120" height="40" as="geometry" />
        </mxCell>
        <mxCell id="7PmO3jos0R-jNk6ZXs70-13" value="收包造假" style="rounded=1;whiteSpace=wrap;html=1;strokeWidth=2;fontSize=20;fillColor=#fad9d5;strokeColor=#ae4132;" vertex="1" parent="1">
          <mxGeometry x="520" y="290" width="120" height="40" as="geometry" />
        </mxCell>
        <mxCell id="7PmO3jos0R-jNk6ZXs70-14" value="" style="endArrow=classic;html=1;rounded=0;dashed=1;strokeWidth=2;fontSize=20;" edge="1" parent="1">
          <mxGeometry width="50" height="50" relative="1" as="geometry">
            <mxPoint x="450" y="660" as="sourcePoint" />
            <mxPoint x="520.5" y="660" as="targetPoint" />
          </mxGeometry>
        </mxCell>
        <mxCell id="7PmO3jos0R-jNk6ZXs70-15" value="修改内存" style="rounded=1;whiteSpace=wrap;html=1;strokeWidth=2;fontSize=20;fillColor=#fad9d5;strokeColor=#ae4132;" vertex="1" parent="1">
          <mxGeometry x="520.5" y="640" width="120" height="40" as="geometry" />
        </mxCell>
        <mxCell id="7PmO3jos0R-jNk6ZXs70-17" value="玩家操作" style="rounded=1;whiteSpace=wrap;html=1;strokeWidth=2;fontSize=20;fillColor=#1ba1e2;fontColor=#ffffff;strokeColor=#006EAF;" vertex="1" parent="1">
          <mxGeometry x="310.5" y="460" width="140" height="40" as="geometry" />
        </mxCell>
        <mxCell id="7PmO3jos0R-jNk6ZXs70-19" value="非玩家操作" style="rounded=1;whiteSpace=wrap;html=1;strokeWidth=2;fontSize=20;fillColor=#fad9d5;strokeColor=#ae4132;" vertex="1" parent="1">
          <mxGeometry x="520" y="430" width="120" height="85" as="geometry" />
        </mxCell>
        <mxCell id="7PmO3jos0R-jNk6ZXs70-20" value="" style="endArrow=classic;html=1;rounded=0;dashed=1;strokeWidth=2;fontSize=20;" edge="1" parent="1">
          <mxGeometry width="50" height="50" relative="1" as="geometry">
            <mxPoint x="450" y="480" as="sourcePoint" />
            <mxPoint x="515" y="479.5" as="targetPoint" />
          </mxGeometry>
        </mxCell>
        <mxCell id="7PmO3jos0R-jNk6ZXs70-21" value="脚本" style="rounded=1;whiteSpace=wrap;html=1;strokeWidth=2;fontSize=20;fillColor=#fad9d5;strokeColor=#ae4132;" vertex="1" parent="1">
          <mxGeometry x="640" y="430" width="120" height="40" as="geometry" />
        </mxCell>
        <mxCell id="7PmO3jos0R-jNk6ZXs70-22" value="AI外挂" style="rounded=1;whiteSpace=wrap;html=1;strokeWidth=2;fontSize=20;fillColor=#fad9d5;strokeColor=#ae4132;" vertex="1" parent="1">
          <mxGeometry x="640" y="470" width="120" height="40" as="geometry" />
        </mxCell>
        <mxCell id="7PmO3jos0R-jNk6ZXs70-23" value="Game Render" style="rounded=1;whiteSpace=wrap;html=1;strokeWidth=2;fontSize=20;fillColor=#1ba1e2;fontColor=#ffffff;strokeColor=#006EAF;" vertex="1" parent="1">
          <mxGeometry x="310" y="533" width="140" height="40" as="geometry" />
        </mxCell>
        <mxCell id="7PmO3jos0R-jNk6ZXs70-24" value="" style="endArrow=classic;html=1;rounded=0;dashed=1;strokeWidth=2;fontSize=20;" edge="1" parent="1">
          <mxGeometry width="50" height="50" relative="1" as="geometry">
            <mxPoint x="450" y="553" as="sourcePoint" />
            <mxPoint x="520.5" y="553" as="targetPoint" />
          </mxGeometry>
        </mxCell>
        <mxCell id="7PmO3jos0R-jNk6ZXs70-25" value="修改渲染" style="rounded=1;whiteSpace=wrap;html=1;strokeWidth=2;fontSize=20;fillColor=#fad9d5;strokeColor=#ae4132;" vertex="1" parent="1">
          <mxGeometry x="520.5" y="533" width="120" height="40" as="geometry" />
        </mxCell>
        <mxCell id="7PmO3jos0R-jNk6ZXs70-26" value="私服" style="rounded=1;whiteSpace=wrap;html=1;strokeWidth=2;fontSize=20;fillColor=#fad9d5;strokeColor=#ae4132;" vertex="1" parent="1">
          <mxGeometry x="520.5" y="140" width="120" height="40" as="geometry" />
        </mxCell>
        <mxCell id="7PmO3jos0R-jNk6ZXs70-27" value="" style="endArrow=classic;html=1;rounded=0;dashed=1;strokeWidth=2;fontSize=20;" edge="1" parent="1">
          <mxGeometry width="50" height="50" relative="1" as="geometry">
            <mxPoint x="450" y="160" as="sourcePoint" />
            <mxPoint x="520" y="159.5" as="targetPoint" />
          </mxGeometry>
        </mxCell>
        <mxCell id="7PmO3jos0R-jNk6ZXs70-28" value="修改代码" style="rounded=1;whiteSpace=wrap;html=1;strokeWidth=2;fontSize=20;fillColor=#fad9d5;strokeColor=#ae4132;" vertex="1" parent="1">
          <mxGeometry x="520.5" y="586" width="120" height="40" as="geometry" />
        </mxCell>
        <mxCell id="7PmO3jos0R-jNk6ZXs70-30" value="" style="endArrow=classic;html=1;rounded=0;dashed=1;strokeWidth=2;fontSize=20;" edge="1" parent="1">
          <mxGeometry width="50" height="50" relative="1" as="geometry">
            <mxPoint x="449.9999999999998" y="603" as="sourcePoint" />
            <mxPoint x="520.5" y="603" as="targetPoint" />
          </mxGeometry>
        </mxCell>
      </root>
    </mxGraphModel>
  </diagram>
  <diagram id="tE-Uf1j7tI3mtRuMgK30" name="第 3 页">
    <mxGraphModel dx="792" dy="694" grid="1" gridSize="10" guides="1" tooltips="1" connect="1" arrows="1" fold="1" page="1" pageScale="1" pageWidth="827" pageHeight="1169" math="0" shadow="0">
      <root>
        <mxCell id="0" />
        <mxCell id="1" parent="0" />
        <mxCell id="DboIJNe069mp_g6qr4R1-9" value="" style="rounded=1;whiteSpace=wrap;html=1;fontSize=20;strokeWidth=2;" parent="1" vertex="1">
          <mxGeometry x="244" y="164" width="170" height="226" as="geometry" />
        </mxCell>
        <mxCell id="DboIJNe069mp_g6qr4R1-8" value="" style="rounded=1;whiteSpace=wrap;html=1;fontSize=20;strokeWidth=2;" parent="1" vertex="1">
          <mxGeometry x="20" y="164" width="170" height="226" as="geometry" />
        </mxCell>
        <mxCell id="zVFqaz7_ym3i_oUb1leX-1" value="" style="rounded=0;whiteSpace=wrap;html=1;fontSize=20;strokeWidth=2;" parent="1" vertex="1">
          <mxGeometry x="270" y="320" width="90" height="20" as="geometry" />
        </mxCell>
        <mxCell id="DboIJNe069mp_g6qr4R1-1" value="" style="shape=image;html=1;verticalAlign=top;verticalLabelPosition=bottom;labelBackgroundColor=#ffffff;imageAspect=0;aspect=fixed;image=https://cdn0.iconfinder.com/data/icons/phosphor-fill-vol-3/256/person-simple-run-fill-128.png" parent="1" vertex="1">
          <mxGeometry x="370" y="180" width="28" height="28" as="geometry" />
        </mxCell>
        <mxCell id="DboIJNe069mp_g6qr4R1-2" value="" style="shape=image;html=1;verticalAlign=top;verticalLabelPosition=bottom;labelBackgroundColor=#ffffff;imageAspect=0;aspect=fixed;image=https://cdn0.iconfinder.com/data/icons/phosphor-fill-vol-3/256/person-simple-run-fill-128.png;imageBackground=#99CCFF;" parent="1" vertex="1">
          <mxGeometry x="342" y="350" width="28" height="28" as="geometry" />
        </mxCell>
        <mxCell id="DboIJNe069mp_g6qr4R1-3" value="" style="endArrow=circlePlus;html=1;rounded=0;dashed=1;fontSize=20;strokeWidth=2;exitX=0.75;exitY=0;exitDx=0;exitDy=0;endFill=0;fillColor=#f8cecc;strokeColor=#FF3333;" parent="1" source="DboIJNe069mp_g6qr4R1-2" edge="1">
          <mxGeometry width="50" height="50" relative="1" as="geometry">
            <mxPoint x="380" y="380" as="sourcePoint" />
            <mxPoint x="380" y="210" as="targetPoint" />
          </mxGeometry>
        </mxCell>
        <mxCell id="DboIJNe069mp_g6qr4R1-4" value="" style="rounded=0;whiteSpace=wrap;html=1;fontSize=20;strokeWidth=2;" parent="1" vertex="1">
          <mxGeometry x="50" y="320" width="90" height="20" as="geometry" />
        </mxCell>
        <mxCell id="DboIJNe069mp_g6qr4R1-5" value="" style="shape=image;html=1;verticalAlign=top;verticalLabelPosition=bottom;labelBackgroundColor=#ffffff;imageAspect=0;aspect=fixed;image=https://cdn0.iconfinder.com/data/icons/phosphor-fill-vol-3/256/person-simple-run-fill-128.png" parent="1" vertex="1">
          <mxGeometry x="150" y="180" width="28" height="28" as="geometry" />
        </mxCell>
        <mxCell id="DboIJNe069mp_g6qr4R1-6" value="" style="shape=image;html=1;verticalAlign=top;verticalLabelPosition=bottom;labelBackgroundColor=#ffffff;imageAspect=0;aspect=fixed;image=https://cdn0.iconfinder.com/data/icons/phosphor-fill-vol-3/256/person-simple-run-fill-128.png;imageBackground=#99CCFF;" parent="1" vertex="1">
          <mxGeometry x="112" y="350" width="28" height="28" as="geometry" />
        </mxCell>
      </root>
    </mxGraphModel>
  </diagram>
</mxfile>
